<svg xmlns="http://www.w3.org/2000/svg" width="95.203" height="38.468" viewBox="0 0 95.203 38.468"><g transform="translate(28.559 0)"><path d="M1142.8,24.819l-14.687-38.468h-11.877L1101.5,24.792h11.488l3-9.934h12.32l3,9.934ZM1118.437,6.764l3.713-12.278,3.713,12.278Z" transform="translate(-1101.498 13.649)" fill="#fff"/></g><path d="M1307.6-13.649V6.764h-8.853V-13.649h-10.641V8.192l6.323,16.627h4.318V14.856h8.853v9.963h10.592V-13.649Z" transform="translate(-1222.988 13.649)" fill="#fff"/><g transform="translate(0 0)"><path d="M988.74,9.139V-13.649H961.7V-6.6c0,6.412.179,13.045-2.726,17.271h-3.241V24.819h9.731V14.857h17.278v9.935l5.415-14.12Zm-9.875-2.375h-9.809c1.714-3.807,1.714-3.807,1.828-12.594v-.41h7.98Z" transform="translate(-955.729 13.649)" fill="#fff"/></g></svg>