<svg xmlns="http://www.w3.org/2000/svg" xmlns:xlink="http://www.w3.org/1999/xlink" width="1000" height="505.28828" viewBox="0 0 1000 505.28828"><defs><style>.a{fill:url(#a);}.b{fill:url(#b);}.c{fill:url(#c);}.d{fill:url(#d);}.e{fill:url(#e);}.f{fill:url(#f);}.g{fill:url(#g);}.h{fill:url(#h);}.i{fill:url(#i);}.j{fill:url(#j);}.k{fill:url(#k);}.l{fill:url(#l);}.m{fill:url(#m);}.n{fill:url(#n);}.o{fill:url(#o);}.p{fill:url(#p);}.q{fill:url(#q);}.r{fill:url(#r);}.s{fill:url(#s);}.t{fill:url(#t);}.u{fill:url(#u);}.v{fill:url(#v);}.w{fill:url(#w);}.x{fill:url(#x);}.y{fill:url(#y);}.z{fill:url(#z);}.aa{fill:url(#aa);}.ab{fill:url(#ab);}.ac{fill:url(#ac);}.ad{fill:url(#ad);}.ae{fill:url(#ae);}.af{fill:url(#af);}.ag{fill:url(#ag);}.ah{fill:url(#ah);}.ai{fill:url(#ai);}.aj{fill:url(#aj);}.ak{fill:url(#ak);}.al{fill:url(#al);}.am{fill:url(#am);}.an{fill:url(#an);}.ao{fill:url(#ao);}.ap{fill:url(#ap);}.aq{fill:url(#aq);}.ar{fill:url(#ar);}.as{fill:url(#as);}.at{fill:url(#at);}.au{fill:url(#au);}.av{fill:url(#av);}.aw{fill:url(#aw);}.ax{fill:url(#ax);}.ay{fill:url(#ay);}.az{fill:url(#az);}.ba{fill:url(#ba);}.bb{fill:url(#bb);}.bc{fill:url(#bc);}.bd{fill:url(#bd);}.be{fill:url(#be);}.bf{fill:url(#bf);}.bg{fill:url(#bg);}.bh{fill:url(#bh);}.bi{fill:url(#bi);}.bj{fill:url(#bj);}.bk{fill:url(#bk);}.bl{fill:url(#bl);}.bm{fill:url(#bm);}.bn{fill:url(#bn);}.bo{fill:url(#bo);}.bp{fill:url(#bp);}.bq{fill:url(#bq);}.br{fill:url(#br);}.bs{fill:url(#bs);}.bt{fill:url(#bt);}.bu{fill:url(#bu);}.bv{fill:url(#bv);}.bw{fill:url(#bw);}.bx{fill:url(#bx);}.by{fill:url(#by);}.bz{fill:url(#bz);}.ca{fill:url(#ca);}.cb{fill:url(#cb);}.cc{fill:url(#cc);}.cd{fill:url(#cd);}.ce{fill:url(#ce);}.cf{fill:url(#cf);}.cg{fill:url(#cg);}.ch{fill:url(#ch);}.ci{fill:url(#ci);}.cj{fill:url(#cj);}.ck{fill:url(#ck);}.cl{fill:url(#cl);}.cm{fill:url(#cm);}.cn{fill:url(#cn);}.co{fill:url(#co);}.cp{fill:url(#cp);}.cq{fill:url(#cq);}.cr{fill:url(#cr);}.cs{fill:url(#cs);}.ct{fill:url(#ct);}.cu{fill:url(#cu);}.cv{fill:url(#cv);}.cw{fill:url(#cw);}.cx{fill:url(#cx);}.cy{fill:url(#cy);}.cz{fill:url(#cz);}.da{fill:url(#da);}.db{fill:url(#db);}.dc{fill:url(#dc);}.dd{fill:url(#dd);}.de{fill:url(#de);}.df{fill:url(#df);}.dg{fill:url(#dg);}.dh{fill:url(#dh);}.di{fill:url(#di);}.dj{fill:url(#dj);}.dk{fill:url(#dk);}.dl{fill:url(#dl);}.dm{fill:url(#dm);}.dn{fill:url(#dn);}.do{fill:url(#do);}.dp{fill:url(#dp);}.dq{fill:url(#dq);}.dr{fill:url(#dr);}.ds{fill:url(#ds);}.dt{fill:url(#dt);}.du{fill:url(#du);}.dv{fill:url(#dv);}.dw{fill:url(#dw);}.dx{fill:url(#dx);}.dy{fill:url(#dy);}.dz{fill:url(#dz);}.ea{fill:url(#ea);}.eb{fill:url(#eb);}.ec{fill:url(#ec);}.ed{fill:url(#ed);}.ee{fill:url(#ee);}.ef{fill:url(#ef);}.eg{fill:url(#eg);}.eh{fill:url(#eh);}.ei{fill:url(#ei);}.ej{fill:url(#ej);}.ek{fill:url(#ek);}.el{fill:url(#el);}.em{fill:url(#em);}.en{fill:url(#en);}.eo{fill:url(#eo);}.ep{fill:url(#ep);}.eq{fill:url(#eq);}.er{fill:url(#er);}.es{fill:url(#es);}.et{fill:url(#et);}.eu{fill:url(#eu);}.ev{fill:url(#ev);}.ew{fill:url(#ew);}.ex{fill:url(#ex);}.ey{fill:url(#ey);}.ez{fill:url(#ez);}.fa{fill:url(#fa);}.fb{fill:url(#fb);}.fc{fill:url(#fc);}.fd{fill:url(#fd);}.fe{fill:url(#fe);}.ff{fill:url(#ff);}.fg{fill:url(#fg);}.fh{fill:url(#fh);}.fi{fill:url(#fi);}.fj{fill:url(#fj);}.fk{fill:url(#fk);}.fl{fill:url(#fl);}.fm{fill:url(#fm);}.fn{fill:url(#fn);}.fo{fill:url(#fo);}.fp{fill:url(#fp);}.fq{fill:url(#fq);}.fr{fill:url(#fr);}.fs{fill:url(#fs);}.ft{fill:url(#ft);}.fu{fill:url(#fu);}.fv{fill:url(#fv);}.fw{fill:url(#fw);}.fx{fill:url(#fx);}.fy{fill:url(#fy);}.fz{fill:url(#fz);}.ga{fill:url(#ga);}.gb{fill:url(#gb);}.gc{fill:url(#gc);}.gd{fill:url(#gd);}.ge{fill:url(#ge);}.gf{fill:url(#gf);}.gg{fill:url(#gg);}.gh{fill:url(#gh);}.gi{fill:url(#gi);}.gj{fill:url(#gj);}.gk{fill:url(#gk);}.gl{fill:url(#gl);}.gm{fill:url(#gm);}.gn{fill:url(#gn);}.go{fill:url(#go);}.gp{fill:url(#gp);}.gq{fill:url(#gq);}.gr{fill:url(#gr);}.gs{fill:url(#gs);}.gt{fill:url(#gt);}.gu{fill:url(#gu);}.gv{fill:url(#gv);}.gw{fill:url(#gw);}.gx{fill:url(#gx);}.gy{fill:url(#gy);}.gz{fill:url(#gz);}.ha{fill:url(#ha);}.hb{fill:url(#hb);}.hc{fill:url(#hc);}.hd{fill:url(#hd);}.he{fill:url(#he);}.hf{fill:url(#hf);}.hg{fill:url(#hg);}.hh{fill:url(#hh);}.hi{fill:url(#hi);}.hj{fill:url(#hj);}.hk{fill:url(#hk);}.hl{fill:url(#hl);}.hm{fill:url(#hm);}.hn{fill:url(#hn);}.ho{fill:url(#ho);}.hp{fill:url(#hp);}.hq{fill:url(#hq);}.hr{fill:url(#hr);}.hs{fill:url(#hs);}.ht{fill:url(#ht);}.hu{fill:url(#hu);}.hv{fill:url(#hv);}.hw{fill:url(#hw);}.hx{fill:url(#hx);}.hy{fill:url(#hy);}.hz{fill:url(#hz);}.ia{fill:url(#ia);}.ib{fill:url(#ib);}.ic{fill:url(#ic);}.id{fill:url(#id);}.ie{fill:url(#ie);}.if{fill:url(#if);}.ig{fill:url(#ig);}.ih{fill:url(#ih);}.ii{fill:url(#ii);}.ij{fill:url(#ij);}.ik{fill:url(#ik);}.il{fill:url(#il);}.im{fill:url(#im);}.in{fill:#ed1a3b;}</style><radialGradient id="a" cx="260.36137" cy="254.70039" r="262.2576" gradientUnits="userSpaceOnUse"><stop offset="0.5" stop-color="#b10d28"/><stop offset="0.6" stop-color="#ed1a3b"/><stop offset="1" stop-color="#f58220"/></radialGradient><radialGradient id="b" cx="260.36262" cy="254.72606" r="262.36184" xlink:href="#a"/><radialGradient id="c" cx="260.3614" cy="254.70502" r="262.26724" xlink:href="#a"/><radialGradient id="d" cx="260.37088" cy="254.74087" r="262.33733" xlink:href="#a"/><radialGradient id="e" cx="260.36324" cy="254.75574" r="262.34142" xlink:href="#a"/><radialGradient id="f" cx="260.36567" cy="254.72461" r="262.36719" xlink:href="#a"/><radialGradient id="g" cx="260.35179" cy="254.71374" r="262.30682" xlink:href="#a"/><radialGradient id="h" cx="260.35187" cy="254.72595" r="262.3487" xlink:href="#a"/><radialGradient id="i" cx="260.35522" cy="254.7748" r="262.36412" xlink:href="#a"/><radialGradient id="j" cx="260.35993" cy="254.73091" r="262.35062" xlink:href="#a"/><radialGradient id="k" cx="260.35312" cy="254.7808" r="262.36729" xlink:href="#a"/><radialGradient id="l" cx="260.3506" cy="254.75906" r="262.29791" xlink:href="#a"/><radialGradient id="m" cx="260.36479" cy="254.74244" r="262.32356" xlink:href="#a"/><radialGradient id="n" cx="260.35874" cy="254.75693" r="262.31142" xlink:href="#a"/><radialGradient id="o" cx="260.35827" cy="254.75584" r="262.33667" xlink:href="#a"/><radialGradient id="p" cx="260.34887" cy="254.75125" r="262.3039" xlink:href="#a"/><radialGradient id="q" cx="260.35801" cy="254.7433" r="262.33576" xlink:href="#a"/><radialGradient id="r" cx="260.34992" cy="254.74286" r="262.30922" xlink:href="#a"/><radialGradient id="s" cx="260.38321" cy="254.74792" r="262.29491" xlink:href="#a"/><radialGradient id="t" cx="260.35823" cy="254.74205" r="262.32153" xlink:href="#a"/><radialGradient id="u" cx="260.35488" cy="254.74737" r="262.34167" xlink:href="#a"/><radialGradient id="v" cx="260.37281" cy="254.74507" r="262.34844" xlink:href="#a"/><radialGradient id="w" cx="260.37744" cy="254.746" r="262.30796" xlink:href="#a"/><radialGradient id="x" cx="260.34793" cy="254.76263" r="262.31324" xlink:href="#a"/><radialGradient id="y" cx="260.36087" cy="254.74676" r="262.33014" xlink:href="#a"/><radialGradient id="z" cx="260.3563" cy="254.74421" r="262.31245" xlink:href="#a"/><radialGradient id="aa" cx="260.37668" cy="254.73978" r="262.32015" xlink:href="#a"/><radialGradient id="ab" cx="260.36222" cy="254.75744" r="262.34249" xlink:href="#a"/><radialGradient id="ac" cx="260.37331" cy="254.74848" r="262.3175" xlink:href="#a"/><radialGradient id="ad" cx="260.36477" cy="254.79329" r="262.39616" xlink:href="#a"/><radialGradient id="ae" cx="260.3657" cy="254.7549" r="262.31129" xlink:href="#a"/><radialGradient id="af" cx="260.36094" cy="254.73337" r="262.31231" xlink:href="#a"/><radialGradient id="ag" cx="260.36614" cy="254.74324" r="262.33512" xlink:href="#a"/><radialGradient id="ah" cx="260.35859" cy="254.69192" r="262.23661" xlink:href="#a"/><radialGradient id="ai" cx="260.36651" cy="254.73269" r="262.34996" xlink:href="#a"/><radialGradient id="aj" cx="260.36004" cy="254.72929" r="262.3041" xlink:href="#a"/><radialGradient id="ak" cx="260.36506" cy="254.72912" r="262.29794" xlink:href="#a"/><radialGradient id="al" cx="260.36291" cy="254.74321" r="262.33275" xlink:href="#a"/><radialGradient id="am" cx="260.36413" cy="254.75445" r="262.34408" xlink:href="#a"/><radialGradient id="an" cx="260.3604" cy="254.72673" r="262.36754" xlink:href="#a"/><radialGradient id="ao" cx="260.3722" cy="254.71982" r="262.28239" xlink:href="#a"/><radialGradient id="ap" cx="260.36203" cy="254.72625" r="262.36805" xlink:href="#a"/><radialGradient id="aq" cx="260.35869" cy="254.7387" r="262.32167" xlink:href="#a"/><radialGradient id="ar" cx="260.36182" cy="254.74098" r="262.33684" xlink:href="#a"/><radialGradient id="as" cx="260.35031" cy="254.73966" r="262.3404" xlink:href="#a"/><radialGradient id="at" cx="260.3635" cy="254.74294" r="262.33453" xlink:href="#a"/><radialGradient id="au" cx="260.36976" cy="254.69348" r="262.26898" xlink:href="#a"/><radialGradient id="av" cx="260.36174" cy="254.74396" r="262.33288" xlink:href="#a"/><radialGradient id="aw" cx="260.37416" cy="254.73403" r="262.3007" xlink:href="#a"/><radialGradient id="ax" cx="260.36698" cy="254.74812" r="262.33145" xlink:href="#a"/><radialGradient id="ay" cx="260.36091" cy="254.74067" r="262.33095" xlink:href="#a"/><radialGradient id="az" cx="260.34512" cy="254.74844" r="262.29671" xlink:href="#a"/><radialGradient id="ba" cx="260.34098" cy="254.75759" r="262.37231" xlink:href="#a"/><radialGradient id="bb" cx="260.37045" cy="254.75364" r="262.3332" xlink:href="#a"/><radialGradient id="bc" cx="260.35665" cy="254.74833" r="262.34088" xlink:href="#a"/><radialGradient id="bd" cx="260.35845" cy="254.74585" r="262.31679" xlink:href="#a"/><radialGradient id="be" cx="260.36071" cy="254.74515" r="262.33471" xlink:href="#a"/><radialGradient id="bf" cx="260.36373" cy="254.73443" r="262.32877" xlink:href="#a"/><radialGradient id="bg" cx="260.35965" cy="254.73783" r="262.34338" xlink:href="#a"/><radialGradient id="bh" cx="260.37126" cy="254.75543" r="262.35043" xlink:href="#a"/><radialGradient id="bi" cx="260.36856" cy="254.7395" r="262.32737" xlink:href="#a"/><radialGradient id="bj" cx="260.34172" cy="254.7439" r="262.29173" xlink:href="#a"/><radialGradient id="bk" cx="260.36413" cy="254.7496" r="262.3237" xlink:href="#a"/><radialGradient id="bl" cx="260.36385" cy="254.76274" r="262.35039" xlink:href="#a"/><radialGradient id="bm" cx="260.36038" cy="254.74803" r="262.33162" xlink:href="#a"/><radialGradient id="bn" cx="260.36662" cy="254.718" r="262.29176" xlink:href="#a"/><radialGradient id="bo" cx="260.37141" cy="254.72428" r="262.35441" xlink:href="#a"/><radialGradient id="bp" cx="260.36527" cy="254.73205" r="262.31019" xlink:href="#a"/><radialGradient id="bq" cx="260.36006" cy="254.7247" r="262.36966" xlink:href="#a"/><radialGradient id="br" cx="260.35918" cy="254.74925" r="262.33457" xlink:href="#a"/><radialGradient id="bs" cx="260.3588" cy="254.75594" r="262.31317" xlink:href="#a"/><radialGradient id="bt" cx="260.36387" cy="254.74747" r="262.3294" xlink:href="#a"/><radialGradient id="bu" cx="260.36404" cy="254.72658" r="262.29969" xlink:href="#a"/><radialGradient id="bv" cx="260.36404" cy="254.7539" r="262.31932" xlink:href="#a"/><radialGradient id="bw" cx="260.36611" cy="254.74213" r="262.31922" xlink:href="#a"/><radialGradient id="bx" cx="260.36212" cy="254.75999" r="262.30907" xlink:href="#a"/><radialGradient id="by" cx="260.36576" cy="254.72693" r="262.30147" xlink:href="#a"/><radialGradient id="bz" cx="260.36557" cy="254.75764" r="262.31518" xlink:href="#a"/><radialGradient id="ca" cx="260.35488" cy="254.80248" r="262.40374" xlink:href="#a"/><radialGradient id="cb" cx="260.3699" cy="254.72469" r="262.36227" xlink:href="#a"/><radialGradient id="cc" cx="260.36434" cy="254.74244" r="262.32304" xlink:href="#a"/><radialGradient id="cd" cx="260.35854" cy="254.75208" r="262.3163" xlink:href="#a"/><radialGradient id="ce" cx="260.35669" cy="254.7762" r="262.36173" xlink:href="#a"/><radialGradient id="cf" cx="260.35022" cy="254.75137" r="262.30952" xlink:href="#a"/><radialGradient id="cg" cx="260.34017" cy="254.72452" r="262.34794" xlink:href="#a"/><radialGradient id="ch" cx="260.36178" cy="254.7465" r="262.32798" xlink:href="#a"/><radialGradient id="ci" cx="260.36497" cy="254.74176" r="262.32226" xlink:href="#a"/><radialGradient id="cj" cx="260.35658" cy="254.74821" r="262.31914" xlink:href="#a"/><radialGradient id="ck" cx="260.36669" cy="254.74742" r="262.32353" xlink:href="#a"/><radialGradient id="cl" cx="260.35957" cy="254.75733" r="262.33626" xlink:href="#a"/><radialGradient id="cm" cx="260.40216" cy="254.75256" r="262.38283" xlink:href="#a"/><radialGradient id="cn" cx="260.38192" cy="254.74824" r="262.29889" xlink:href="#a"/><radialGradient id="co" cx="260.41066" cy="254.74742" r="262.40231" xlink:href="#a"/><radialGradient id="cp" cx="260.36806" cy="254.75312" r="262.31903" xlink:href="#a"/><radialGradient id="cq" cx="260.38916" cy="254.74079" r="262.36741" xlink:href="#a"/><radialGradient id="cr" cx="260.35709" cy="254.75324" r="262.33214" xlink:href="#a"/><radialGradient id="cs" cx="260.35504" cy="254.74858" r="262.33462" xlink:href="#a"/><radialGradient id="ct" cx="260.41087" cy="254.74688" r="262.27738" xlink:href="#a"/><radialGradient id="cu" cx="260.33485" cy="254.73916" r="262.35863" xlink:href="#a"/><radialGradient id="cv" cx="260.39121" cy="254.76148" r="262.29168" xlink:href="#a"/><radialGradient id="cw" cx="260.34031" cy="254.73763" r="262.35458" xlink:href="#a"/><radialGradient id="cx" cx="260.3583" cy="254.72628" r="262.35477" xlink:href="#a"/><radialGradient id="cy" cx="260.36269" cy="254.79095" r="262.27393" xlink:href="#a"/><radialGradient id="cz" cx="260.36415" cy="254.76708" r="262.30591" xlink:href="#a"/><radialGradient id="da" cx="260.35884" cy="254.74419" r="262.32696" xlink:href="#a"/><radialGradient id="db" cx="260.36151" cy="254.73607" r="262.33854" xlink:href="#a"/><radialGradient id="dc" cx="260.34705" cy="254.74547" r="262.34151" xlink:href="#a"/><radialGradient id="dd" cx="260.34428" cy="254.77037" r="262.32972" xlink:href="#a"/><radialGradient id="de" cx="260.36316" cy="254.75376" r="262.33879" xlink:href="#a"/><radialGradient id="df" cx="260.35813" cy="254.76294" r="262.34159" xlink:href="#a"/><radialGradient id="dg" cx="260.35948" cy="254.72742" r="262.30931" xlink:href="#a"/><radialGradient id="dh" cx="260.37264" cy="254.72359" r="262.29998" xlink:href="#a"/><radialGradient id="di" cx="260.36088" cy="254.75991" r="262.33637" xlink:href="#a"/><radialGradient id="dj" cx="260.38774" cy="254.73707" r="262.30071" xlink:href="#a"/><radialGradient id="dk" cx="260.35615" cy="254.7277" r="262.3193" xlink:href="#a"/><radialGradient id="dl" cx="260.35762" cy="254.75995" r="262.34213" xlink:href="#a"/><radialGradient id="dm" cx="260.35787" cy="254.74356" r="262.33435" xlink:href="#a"/><radialGradient id="dn" cx="260.34129" cy="254.77438" r="262.33412" xlink:href="#a"/><radialGradient id="do" cx="260.38929" cy="254.74522" r="262.30044" xlink:href="#a"/><radialGradient id="dp" cx="260.37671" cy="254.74221" r="262.3121" xlink:href="#a"/><radialGradient id="dq" cx="260.34038" cy="254.75941" r="262.3587" xlink:href="#a"/><radialGradient id="dr" cx="260.33091" cy="254.75155" r="262.2977" xlink:href="#a"/><radialGradient id="ds" cx="260.35136" cy="254.73538" r="262.33448" xlink:href="#a"/><radialGradient id="dt" cx="260.35489" cy="254.71832" r="262.35765" xlink:href="#a"/><radialGradient id="du" cx="260.37173" cy="254.74357" r="262.33926" xlink:href="#a"/><radialGradient id="dv" cx="260.36207" cy="254.73606" r="262.32235" xlink:href="#a"/><radialGradient id="dw" cx="260.33924" cy="254.74758" r="262.30223" xlink:href="#a"/><radialGradient id="dx" cx="260.33993" cy="254.73753" r="262.29953" xlink:href="#a"/><radialGradient id="dy" cx="260.33554" cy="254.76141" r="262.3105" xlink:href="#a"/><radialGradient id="dz" cx="260.38283" cy="254.73692" r="262.3527" xlink:href="#a"/><radialGradient id="ea" cx="260.37468" cy="254.75271" r="262.34537" xlink:href="#a"/><radialGradient id="eb" cx="260.37998" cy="254.74319" r="262.35049" xlink:href="#a"/><radialGradient id="ec" cx="260.33318" cy="254.74452" r="262.36727" xlink:href="#a"/><radialGradient id="ed" cx="260.35983" cy="254.74255" r="262.32375" xlink:href="#a"/><radialGradient id="ee" cx="260.37749" cy="254.72639" r="262.33388" xlink:href="#a"/><radialGradient id="ef" cx="260.36804" cy="254.76166" r="262.3479" xlink:href="#a"/><radialGradient id="eg" cx="260.36489" cy="254.7501" r="262.33423" xlink:href="#a"/><radialGradient id="eh" cx="260.35258" cy="254.73356" r="262.35619" xlink:href="#a"/><radialGradient id="ei" cx="260.3641" cy="254.75513" r="262.34041" xlink:href="#a"/><radialGradient id="ej" cx="260.35622" cy="254.74033" r="262.31422" xlink:href="#a"/><radialGradient id="ek" cx="260.37964" cy="254.73854" r="262.34423" xlink:href="#a"/><radialGradient id="el" cx="260.36562" cy="254.77863" r="262.28936" xlink:href="#a"/><radialGradient id="em" cx="260.35802" cy="254.73278" r="262.30682" xlink:href="#a"/><radialGradient id="en" cx="260.35306" cy="254.71583" r="262.376" xlink:href="#a"/><radialGradient id="eo" cx="260.3675" cy="254.72354" r="262.352" xlink:href="#a"/><radialGradient id="ep" cx="260.36044" cy="254.75855" r="262.34545" xlink:href="#a"/><radialGradient id="eq" cx="260.3662" cy="254.76728" r="262.29841" xlink:href="#a"/><radialGradient id="er" cx="260.36593" cy="254.74599" r="262.33142" xlink:href="#a"/><radialGradient id="es" cx="260.36864" cy="254.74054" r="262.33749" xlink:href="#a"/><radialGradient id="et" cx="260.36326" cy="254.74961" r="262.32703" xlink:href="#a"/><radialGradient id="eu" cx="260.36265" cy="254.75423" r="262.31977" xlink:href="#a"/><radialGradient id="ev" cx="260.36444" cy="254.76289" r="262.31077" xlink:href="#a"/><radialGradient id="ew" cx="260.36775" cy="254.70649" r="262.36922" xlink:href="#a"/><radialGradient id="ex" cx="260.37672" cy="254.74785" r="262.34397" xlink:href="#a"/><radialGradient id="ey" cx="260.37672" cy="254.74992" r="262.34074" xlink:href="#a"/><radialGradient id="ez" cx="260.36359" cy="254.75185" r="262.32587" xlink:href="#a"/><radialGradient id="fa" cx="260.3475" cy="254.76996" r="262.35621" xlink:href="#a"/><radialGradient id="fb" cx="260.33232" cy="254.68958" r="262.27481" xlink:href="#a"/><radialGradient id="fc" cx="260.36085" cy="254.78206" r="262.35023" xlink:href="#a"/><radialGradient id="fd" cx="260.4056" cy="254.7292" r="262.34302" xlink:href="#a"/><radialGradient id="fe" cx="260.36421" cy="254.75488" r="262.31665" xlink:href="#a"/><radialGradient id="ff" cx="260.36466" cy="254.71676" r="262.36936" xlink:href="#a"/><radialGradient id="fg" cx="260.36481" cy="254.77073" r="262.29565" xlink:href="#a"/><radialGradient id="fh" cx="260.35687" cy="254.74692" r="262.32699" xlink:href="#a"/><radialGradient id="fi" cx="260.36326" cy="254.73488" r="262.34112" xlink:href="#a"/><radialGradient id="fj" cx="260.36944" cy="254.74119" r="262.33651" xlink:href="#a"/><radialGradient id="fk" cx="260.35514" cy="254.76327" r="262.30619" xlink:href="#a"/><radialGradient id="fl" cx="260.34798" cy="254.71732" r="262.34641" xlink:href="#a"/><radialGradient id="fm" cx="260.37978" cy="254.71613" r="262.32309" xlink:href="#a"/><radialGradient id="fn" cx="260.3595" cy="254.76172" r="262.342" xlink:href="#a"/><radialGradient id="fo" cx="260.36535" cy="254.73611" r="262.31781" xlink:href="#a"/><radialGradient id="fp" cx="260.36888" cy="254.67134" r="262.25415" xlink:href="#a"/><radialGradient id="fq" cx="260.36472" cy="254.7276" r="262.32648" xlink:href="#a"/><radialGradient id="fr" cx="260.36481" cy="254.72047" r="262.30163" xlink:href="#a"/><radialGradient id="fs" cx="260.36459" cy="254.79499" r="262.38958" xlink:href="#a"/><radialGradient id="ft" cx="260.35765" cy="254.72086" r="262.29812" xlink:href="#a"/><radialGradient id="fu" cx="260.36034" cy="254.75498" r="262.33651" xlink:href="#a"/><radialGradient id="fv" cx="260.3673" cy="254.73454" r="262.34782" xlink:href="#a"/><radialGradient id="fw" cx="260.36214" cy="254.73881" r="262.3403" xlink:href="#a"/><radialGradient id="fx" cx="260.35655" cy="254.75768" r="262.3142" xlink:href="#a"/><radialGradient id="fy" cx="260.38371" cy="254.77149" r="262.31608" xlink:href="#a"/><radialGradient id="fz" cx="260.3784" cy="254.73705" r="262.35071" xlink:href="#a"/><radialGradient id="ga" cx="260.34798" cy="254.74246" r="262.31895" xlink:href="#a"/><radialGradient id="gb" cx="260.36311" cy="254.72316" r="262.35296" xlink:href="#a"/><radialGradient id="gc" cx="260.3494" cy="254.74688" r="262.31331" xlink:href="#a"/><radialGradient id="gd" cx="260.30129" cy="254.74511" r="262.26368" xlink:href="#a"/><radialGradient id="ge" cx="260.38665" cy="254.76502" r="262.34433" xlink:href="#a"/><radialGradient id="gf" cx="260.34694" cy="254.74992" r="262.30963" xlink:href="#a"/><radialGradient id="gg" cx="260.32559" cy="254.75" r="262.28891" xlink:href="#a"/><radialGradient id="gh" cx="260.38862" cy="254.75005" r="262.34865" xlink:href="#a"/><radialGradient id="gi" cx="260.33628" cy="254.72884" r="262.31587" xlink:href="#a"/><radialGradient id="gj" cx="260.33344" cy="254.7422" r="262.29449" xlink:href="#a"/><radialGradient id="gk" cx="260.36877" cy="254.74676" r="262.33551" xlink:href="#a"/><radialGradient id="gl" cx="260.39856" cy="254.74507" r="262.37298" xlink:href="#a"/><radialGradient id="gm" cx="260.33494" cy="254.74417" r="262.29779" xlink:href="#a"/><radialGradient id="gn" cx="260.36843" cy="254.73599" r="262.33862" xlink:href="#a"/><radialGradient id="go" cx="260.35673" cy="254.76138" r="262.30971" xlink:href="#a"/><radialGradient id="gp" cx="260.36907" cy="254.74743" r="262.32602" xlink:href="#a"/><radialGradient id="gq" cx="260.38067" cy="254.73942" r="262.32784" xlink:href="#a"/><radialGradient id="gr" cx="260.3338" cy="254.74456" r="262.35195" xlink:href="#a"/><radialGradient id="gs" cx="260.37533" cy="254.73758" r="262.32614" xlink:href="#a"/><radialGradient id="gt" cx="260.38527" cy="254.74704" r="262.30922" xlink:href="#a"/><radialGradient id="gu" cx="260.35226" cy="254.7719" r="262.31916" xlink:href="#a"/><radialGradient id="gv" cx="260.36579" cy="254.74783" r="262.32595" xlink:href="#a"/><radialGradient id="gw" cx="260.3579" cy="254.74679" r="262.3336" xlink:href="#a"/><radialGradient id="gx" cx="260.35189" cy="254.74751" r="262.34226" xlink:href="#a"/><radialGradient id="gy" cx="260.33261" cy="254.76025" r="262.36086" xlink:href="#a"/><radialGradient id="gz" cx="260.35512" cy="254.74679" r="262.33702" xlink:href="#a"/><radialGradient id="ha" cx="260.37992" cy="254.74285" r="262.30739" xlink:href="#a"/><radialGradient id="hb" cx="260.33759" cy="254.74445" r="262.3587" xlink:href="#a"/><radialGradient id="hc" cx="260.35472" cy="254.74672" r="262.33953" xlink:href="#a"/><radialGradient id="hd" cx="260.33759" cy="254.74745" r="262.35895" xlink:href="#a"/><radialGradient id="he" cx="260.3744" cy="254.74656" r="262.31588" xlink:href="#a"/><radialGradient id="hf" cx="260.34425" cy="254.74836" r="262.35441" xlink:href="#a"/><radialGradient id="hg" cx="260.34847" cy="254.7306" r="262.34764" xlink:href="#a"/><radialGradient id="hh" cx="260.34562" cy="254.73661" r="262.34938" xlink:href="#a"/><radialGradient id="hi" cx="260.35561" cy="254.74965" r="262.33936" xlink:href="#a"/><radialGradient id="hj" cx="260.3579" cy="254.74349" r="262.33534" xlink:href="#a"/><radialGradient id="hk" cx="260.3491" cy="254.77238" r="262.3638" xlink:href="#a"/><radialGradient id="hl" cx="260.37396" cy="254.75612" r="262.32083" xlink:href="#a"/><radialGradient id="hm" cx="260.3677" cy="254.73555" r="262.31944" xlink:href="#a"/><radialGradient id="hn" cx="260.36872" cy="254.73621" r="262.31675" xlink:href="#a"/><radialGradient id="ho" cx="260.37017" cy="254.73306" r="262.31152" xlink:href="#a"/><radialGradient id="hp" cx="260.35226" cy="254.72204" r="262.32117" xlink:href="#a"/><radialGradient id="hq" cx="260.37992" cy="254.764" r="262.32562" xlink:href="#a"/><radialGradient id="hr" cx="260.36841" cy="254.77881" r="262.36076" xlink:href="#a"/><radialGradient id="hs" cx="260.35854" cy="254.72475" r="262.31114" xlink:href="#a"/><radialGradient id="ht" cx="260.37234" cy="254.81091" r="262.40271" xlink:href="#a"/><radialGradient id="hu" cx="260.36477" cy="254.76996" r="262.35255" xlink:href="#a"/><radialGradient id="hv" cx="260.36042" cy="254.73837" r="262.32247" xlink:href="#a"/><radialGradient id="hw" cx="260.36197" cy="254.6715" r="262.23817" xlink:href="#a"/><radialGradient id="hx" cx="260.36167" cy="254.72965" r="262.30476" xlink:href="#a"/><radialGradient id="hy" cx="260.37097" cy="254.75527" r="262.33348" xlink:href="#a"/><radialGradient id="hz" cx="260.36597" cy="254.72562" r="262.30088" xlink:href="#a"/><radialGradient id="ia" cx="260.36295" cy="254.75723" r="262.34323" xlink:href="#a"/><radialGradient id="ib" cx="260.36595" cy="254.74855" r="262.33522" xlink:href="#a"/><radialGradient id="ic" cx="260.36099" cy="254.79555" r="262.3924" xlink:href="#a"/><radialGradient id="id" cx="260.355" cy="254.69933" r="262.2707" xlink:href="#a"/><radialGradient id="ie" cx="260.36646" cy="254.70743" r="262.27669" xlink:href="#a"/><radialGradient id="if" cx="260.37127" cy="254.70743" r="262.28445" xlink:href="#a"/><radialGradient id="ig" cx="260.37033" cy="254.71596" r="262.29907" xlink:href="#a"/><radialGradient id="ih" cx="260.35771" cy="254.73307" r="262.31046" xlink:href="#a"/><radialGradient id="ii" cx="260.37856" cy="254.73984" r="262.33721" xlink:href="#a"/><radialGradient id="ij" cx="260.37787" cy="254.77881" r="262.37575" xlink:href="#a"/><radialGradient id="ik" cx="260.35574" cy="254.75527" r="262.33301" xlink:href="#a"/><radialGradient id="il" cx="260.3543" cy="254.78116" r="262.34962" xlink:href="#a"/><radialGradient id="im" cx="260.36096" cy="254.76425" r="262.35756" xlink:href="#a"/></defs><title>MTS 2015</title><path class="a" d="M277.31893,91.29181a8.80686,8.80686,0,0,0-9.42233,7.85251,8.6832,8.6832,0,0,0,7.89421,9.40333c.25187.02462.51306.03412.76687.03412a8.6624,8.6624,0,0,0,6.63871-14.22442A8.51336,8.51336,0,0,0,277.31893,91.29181Z"/><path class="b" d="M249.64471,402.70587c-.24432-.02462-.49794-.04169-.75175-.04169a8.74339,8.74339,0,0,0-8.65158,7.93977,8.6739,8.6739,0,0,0,7.88277,9.38626c.25944.02075.5245.02831.78587.02831a8.67276,8.67276,0,0,0,.73469-17.31265Z"/><path class="c" d="M305.63108,96.30778a8.85214,8.85214,0,0,0-10.63419,6.13127,8.67325,8.67325,0,0,0,6.12371,10.61151,8.86157,8.86157,0,0,0,2.25156.30093,8.66922,8.66922,0,0,0,2.25892-17.04371Z"/><path class="d" d="M224.28816,398.20877a8.68208,8.68208,0,0,0-10.61325,6.1274,8.6411,8.6411,0,0,0,6.0954,10.61151,9.02031,9.02031,0,0,0,2.26086.30112,8.66852,8.66852,0,0,0,2.257-17.04Z"/><path class="e" d="M332.64061,106.18266a8.70161,8.70161,0,0,0-11.52224,4.16766,8.53653,8.53653,0,0,0-.28581,6.63871,8.3774,8.3774,0,0,0,4.44028,4.86066,8.47984,8.47984,0,0,0,3.698.85587,8.67522,8.67522,0,0,0,3.66973-16.5229Z"/><path class="f" d="M200.1,389.37164a8.54317,8.54317,0,0,0-3.64491-.80856,8.70917,8.70917,0,0,0-7.87152,5.016,8.63808,8.63808,0,0,0,4.19229,11.4825,8.43769,8.43769,0,0,0,3.67923.84074A8.67006,8.67006,0,0,0,200.1,389.37164Z"/><path class="g" d="M345.45811,122.72263a8.678,8.678,0,0,0,2.10749,12.06943,8.528,8.528,0,0,0,4.946,1.54906,8.64614,8.64614,0,0,0,5.01209-15.74673A8.87773,8.87773,0,0,0,345.45811,122.72263Z"/><path class="h" d="M172.86907,374.88777a8.70116,8.70116,0,0,0-7.10271,3.719,8.65268,8.65268,0,0,0,2.1038,12.05236,8.64521,8.64521,0,0,0,12.06944-2.12823,8.50062,8.50062,0,0,0,1.45986-6.40972,8.68414,8.68414,0,0,0-8.53039-7.2334Z"/><path class="i" d="M367.27736,139.098a8.66878,8.66878,0,1,0,12.24937.03238A8.86618,8.86618,0,0,0,367.27736,139.098Z"/><path class="j" d="M145.89172,359.90618a8.67632,8.67632,0,0,0,6.13128,14.79429,8.66022,8.66022,0,0,0,6.101-14.79061A8.83954,8.83954,0,0,0,145.89172,359.90618Z"/><path class="k" d="M390.88416,174.77808a8.62973,8.62973,0,0,0,4.95354-1.55642,8.64817,8.64817,0,0,0,2.12823-12.03919,8.64918,8.64918,0,0,0-7.095-3.72654,8.4533,8.4533,0,0,0-4.93473,1.56593,8.649,8.649,0,0,0,4.94791,15.75622Z"/><path class="l" d="M134.48116,336.45837a8.69183,8.69183,0,0,0-8.49825,7.133,8.661,8.661,0,0,0,13.48223,8.62695,8.47343,8.47343,0,0,0,3.57491-5.55753,8.7028,8.7028,0,0,0-8.55889-10.20238Z"/><path class="m" d="M396.35076,186.71877a8.586,8.586,0,0,0,.27844,6.66915,8.69327,8.69327,0,0,0,7.86958,5.02547,8.58049,8.58049,0,0,0,3.6451-.80856,8.66468,8.66468,0,0,0-3.67361-16.51359,8.68622,8.68622,0,0,0-8.11951,5.62753Z"/><path class="n" d="M128.77413,317.85241a8.71815,8.71815,0,0,0-7.8545-5.01985,8.66192,8.66192,0,0,0-7.85446,12.32325,8.7363,8.7363,0,0,0,7.87908,5.02353,8.64834,8.64834,0,0,0,7.82988-12.32693Z"/><path class="o" d="M405.38683,217.58554a8.637,8.637,0,0,0,8.32777,6.44364,8.66966,8.66966,0,1,0,.04169-17.33921,8.59412,8.59412,0,0,0-2.23062.30112A8.68993,8.68993,0,0,0,405.38683,217.58554Z"/><path class="p" d="M119.99744,293.6643a8.6308,8.6308,0,0,0-8.33338-6.43609,8.26241,8.26241,0,0,0-2.261.29918,8.651,8.651,0,0,0,2.23444,17.01909,8.99644,8.99644,0,0,0,2.22674-.29356A8.66651,8.66651,0,0,0,119.99744,293.6643Z"/><path class="q" d="M417.71376,233.54613a8.67733,8.67733,0,0,0,.70638,17.32215c.26506,0,.51305-.00756.763-.02462a8.68083,8.68083,0,0,0-.763-17.32972C418.20045,233.51394,417.9637,233.52151,417.71376,233.54613Z"/><path class="r" d="M107.6742,277.68276a8.67731,8.67731,0,0,0-.761-17.32215,5.98582,5.98582,0,0,0-.71762.03781,8.601,8.601,0,0,0-5.86448,3.024,8.67343,8.67343,0,0,0,6.62941,14.29636A6.147,6.147,0,0,0,107.6742,277.68276Z"/><path class="s" d="M419.18313,260.80192a8.76025,8.76025,0,0,0-9.3787,7.894,8.6614,8.6614,0,0,0,7.84127,9.38645c.26506.02463.51306.03782.76106.03782a8.71579,8.71579,0,0,0,8.62889-7.915,8.67027,8.67027,0,0,0-7.85252-9.40332Z"/><path class="t" d="M106.20677,250.43647a6.78943,6.78943,0,0,0,.70056.03219,8.7284,8.7284,0,0,0,8.682-7.92814,8.66809,8.66809,0,0,0-7.85252-9.38626,8.67491,8.67491,0,0,0-1.53006,17.28221Z"/><path class="u" d="M415.89228,287.89464a8.84767,8.84767,0,0,0-2.23062-.286,8.73071,8.73071,0,0,0-8.38089,6.43822,8.65389,8.65389,0,0,0,6.11228,10.60569,8.47425,8.47425,0,0,0,2.24011.29356,8.67384,8.67384,0,0,0,2.25912-17.05147Z"/><path class="v" d="M109.50906,223.31913a8.21837,8.21837,0,0,0,2.23062.29356,8.65254,8.65254,0,0,0,2.23061-17.01928,8.46228,8.46228,0,0,0-2.2628-.318,8.66759,8.66759,0,0,0-2.19843,17.04372Z"/><path class="w" d="M407.99807,314.05587a8.57327,8.57327,0,0,0-3.71142-.85219,8.6684,8.6684,0,0,0-3.66217,16.51941,8.55772,8.55772,0,0,0,3.66217.80662,8.6456,8.6456,0,0,0,3.71142-16.47384Z"/><path class="x" d="M117.42033,197.20521a8.44514,8.44514,0,0,0,3.65461.81612,8.66693,8.66693,0,1,0-3.65461-.81612Z"/><path class="y" d="M390.64741,336.78218a8.69238,8.69238,0,0,0-7.09515,3.69242,8.58219,8.58219,0,0,0-1.42767,6.51384,8.67509,8.67509,0,0,0,8.50964,7.11958,8.66293,8.66293,0,0,0,.01318-17.32584Z"/><path class="z" d="M134.74254,157.12262a8.64994,8.64994,0,0,0-4.95722,15.75429,8.56147,8.56147,0,0,0,4.94965,1.56786,8.6536,8.6536,0,0,0,4.99135-15.74091A8.54217,8.54217,0,0,0,134.74254,157.12262Z"/><path class="aa" d="M367.00086,360.15805a8.64778,8.64778,0,0,0,6.084,14.7941,8.66008,8.66008,0,0,0,6.1559-14.7941A8.89895,8.89895,0,0,0,367.00086,360.15805Z"/><path class="ab" d="M146.17947,138.797a8.5579,8.5579,0,0,0-2.54667,6.11615,8.67626,8.67626,0,0,0,2.53542,6.13322,8.55279,8.55279,0,0,0,6.11616,2.53542,8.64705,8.64705,0,0,0,6.13321-14.78479A8.85965,8.85965,0,0,0,146.17947,138.797Z"/><path class="ac" d="M352.19707,375.1284a8.48543,8.48543,0,0,0-4.92872,1.56962,8.65747,8.65747,0,0,0,9.89737,14.20736,8.66912,8.66912,0,0,0-4.96865-15.777Z"/><path class="ad" d="M173.20413,118.75953a8.65947,8.65947,0,0,0-7.11958,13.60317,8.6206,8.6206,0,0,0,12.06187,2.15305,8.65939,8.65939,0,0,0-4.94229-15.75622Z"/><path class="ae" d="M328.59608,388.7277a8.63007,8.63007,0,0,0-3.66217.80681,8.66137,8.66137,0,0,0-4.22254,11.49569,8.71675,8.71675,0,0,0,7.89227,5.00647,8.64943,8.64943,0,0,0,7.85814-12.29862A8.71687,8.71687,0,0,0,328.59608,388.7277Z"/><path class="af" d="M196.80531,105.17148a8.66109,8.66109,0,0,0-.01706,17.32215,8.67376,8.67376,0,0,0,7.8754-12.33081A8.66615,8.66615,0,0,0,196.80531,105.17148Z"/><path class="ag" d="M300.73823,398.309a8.62573,8.62573,0,0,0-6.13321,10.5832,8.678,8.678,0,0,0,8.36751,6.438,8.86037,8.86037,0,0,0,2.24961-.29356,8.69537,8.69537,0,0,0,6.12566-10.61907A8.81193,8.81193,0,0,0,300.73823,398.309Z"/><path class="ah" d="M220.17924,96.16759a8.66315,8.66315,0,0,0,2.26668,17.02878,8.80434,8.80434,0,0,0,2.2438-.28406,8.63936,8.63936,0,0,0,6.09909-10.58688A8.73776,8.73776,0,0,0,220.17924,96.16759Z"/><path class="ai" d="M275.37412,402.73806a8.65653,8.65653,0,0,0,.67613,17.28046c.29918,0,.5718-.02268.82542-.03975a8.653,8.653,0,1,0-1.50155-17.24071Z"/><path class="aj" d="M248.52746,91.21793a8.66529,8.66529,0,0,0,.74981,17.29753c.24431,0,.49812-.00756.77074-.02463a8.66986,8.66986,0,0,0-1.52055-17.2729Z"/><path class="ak" d="M262.11376,126.62911h.0415a8.90568,8.90568,0,1,0-.0415,0Z"/><path class="al" d="M263.263,384.60928a8.88084,8.88084,0,0,0,.05875,17.76153h.03975a8.88091,8.88091,0,1,0-.0985-17.76153Z"/><path class="am" d="M284.558,128.4886a8.87633,8.87633,0,1,0-7.25434-10.227A8.8348,8.8348,0,0,0,284.558,128.4886Z"/><path class="an" d="M240.85682,382.75367a8.9444,8.9444,0,0,0-10.248,7.24465,8.86322,8.86322,0,0,0,7.2334,10.25163,9.31274,9.31274,0,0,0,1.494.13068,8.84131,8.84131,0,0,0,8.75764-7.36777A8.934,8.934,0,0,0,240.85682,382.75367Z"/><path class="ao" d="M306.25039,134.17294a8.86542,8.86542,0,1,0,6.0384-16.67066,9.07814,9.07814,0,0,0-11.33843,5.351,8.86568,8.86568,0,0,0,5.3,11.31963Z"/><path class="ap" d="M219.09419,377.03133a9.01976,9.01976,0,0,0-11.34038,5.37584,8.86356,8.86356,0,1,0,11.34038-5.37584Z"/><path class="aq" d="M326.7044,143.64063a8.88906,8.88906,0,1,0,8.81639-15.438,9.12756,9.12756,0,0,0-12.11112,3.31935A8.91016,8.91016,0,0,0,326.7044,143.64063Z"/><path class="ar" d="M198.69331,367.63363a9.04922,9.04922,0,0,0-12.115,3.29861,8.82373,8.82373,0,0,0,3.29473,12.08649,8.945,8.945,0,0,0,4.40073,1.17774,8.864,8.864,0,0,0,4.41954-16.56284Z"/><path class="as" d="M350.86033,158.49174a8.83185,8.83185,0,0,0,6.83009-3.21329,8.852,8.852,0,0,0-1.13819-12.4615,9.09573,9.09573,0,0,0-12.50861,1.13431,8.8634,8.8634,0,0,0,1.13605,12.49349A8.9463,8.9463,0,0,0,350.86033,158.49174Z"/><path class="at" d="M167.70729,355.95044a8.87392,8.87392,0,0,0,1.17406,12.50319,8.8686,8.8686,0,1,0,11.31187-13.66193A9.16841,9.16841,0,0,0,167.70729,355.95044Z"/><path class="au" d="M361.16877,172.26729A8.8629,8.8629,0,0,0,374.7,160.817a9.10786,9.10786,0,0,0-12.47836-1.06044A8.89441,8.89441,0,0,0,361.16877,172.26729Z"/><path class="av" d="M164.22506,339.00329a9.08737,9.08737,0,0,0-12.471-1.10018,8.8692,8.8692,0,1,0,14.55386,7.527A8.72407,8.72407,0,0,0,164.22506,339.00329Z"/><path class="aw" d="M373.24382,183.85585a8.86691,8.86691,0,1,0,16.20879-2.16255,9.07316,9.07316,0,0,0-12.11868-3.18867A8.64266,8.64266,0,0,0,373.24382,183.85585Z"/><path class="ax" d="M152.16687,327.36567a8.97074,8.97074,0,0,0-.91268-6.76959,9.11343,9.11343,0,0,0-12.13187-3.19991,8.8849,8.8849,0,0,0-3.202,12.13942,8.909,8.909,0,0,0,12.13206,3.2133A8.8324,8.8324,0,0,0,152.16687,327.36567Z"/><path class="ay" d="M383.99726,204.16211a8.9274,8.9274,0,0,0-.27456,6.794,8.83131,8.83131,0,0,0,8.27289,5.815,8.95661,8.95661,0,0,0,3.096-.55474,8.75836,8.75836,0,0,0,4.982-4.54267,8.95325,8.95325,0,0,0,.30674-6.8679,9.12025,9.12025,0,0,0-11.384-5.22616A8.712,8.712,0,0,0,383.99726,204.16211Z"/><path class="az" d="M141.65406,300.27276a9.03466,9.03466,0,0,0-11.38031-5.25078,8.85642,8.85642,0,0,0,3.07523,17.1744,9.19206,9.19206,0,0,0,3.06942-.53768A8.897,8.897,0,0,0,141.65406,300.27276Z"/><path class="ba" d="M391.04122,226.05911a8.77891,8.77891,0,0,0-1.38967,6.61409,8.89627,8.89627,0,0,0,8.70645,7.29215,8.04445,8.04445,0,0,0,1.58667-.15531,8.83836,8.83836,0,0,0,5.74135-3.719,8.87722,8.87722,0,0,0-8.89027-13.75848A8.94752,8.94752,0,0,0,391.04122,226.05911Z"/><path class="bb" d="M128.57713,288.88876a8.822,8.822,0,1,0-1.55642.14581A9.30125,9.30125,0,0,0,128.57713,288.88876Z"/><path class="bc" d="M400.51842,246.12125a8.88266,8.88266,0,0,0-8.81057,8.9147,8.887,8.887,0,0,0,8.892,8.85614h.01706a8.88556,8.88556,0,1,0-.0985-17.77084Z"/><path class="bd" d="M124.83367,265.11539h.04906a8.88955,8.88955,0,0,0-.11925-17.77859,8.85366,8.85366,0,0,0-8.81052,8.90539A8.9065,8.9065,0,0,0,124.83367,265.11539Z"/><path class="be" d="M400.07362,270.20524a8.8902,8.8902,0,1,0-1.52812,17.63647,8.88083,8.88083,0,0,0,1.52812-17.63647Z"/><path class="bf" d="M125.31066,240.99922a8.6336,8.6336,0,0,0,1.50936.13049,8.9026,8.9026,0,1,0-1.50936-.13049Z"/><path class="bg" d="M395.48732,293.88767a9.03984,9.03984,0,0,0-11.384,5.31709,8.88334,8.88334,0,1,0,11.384-5.31709Z"/><path class="bh" d="M129.92357,217.39047a8.88058,8.88058,0,0,0,6.01765-16.71059,9.04154,9.04154,0,0,0-11.37649,5.34172A8.94887,8.94887,0,0,0,129.92357,217.39047Z"/><path class="bi" d="M386.79406,316.30723A9.13319,9.13319,0,0,0,374.7,319.619a8.9157,8.9157,0,0,0-.852,6.79228,8.954,8.954,0,0,0,8.56626,6.4929,8.87881,8.87881,0,0,0,4.37979-16.597Z"/><path class="bj" d="M138.613,194.90654a8.86661,8.86661,0,0,0,8.79545-15.39829,9.09008,9.09008,0,0,0-12.14331,3.27961A8.93092,8.93092,0,0,0,138.613,194.90654Z"/><path class="bk" d="M361.90345,338.08111a8.86456,8.86456,0,0,0,1.12481,12.51074,8.83241,8.83241,0,0,0,5.65215,2.0468,8.87537,8.87537,0,0,0,5.70916-15.71066A9.11962,9.11962,0,0,0,361.90345,338.08111Z"/><path class="bl" d="M156.67735,176.31183a8.85909,8.85909,0,0,0,5.68822-15.69166,9.08957,9.08957,0,0,0-12.48981,1.1663,8.85771,8.85771,0,0,0,6.80159,14.52536Z"/><path class="bm" d="M346.04872,354.06652a8.86894,8.86894,0,1,0,14.58237,7.4907,8.79622,8.79622,0,0,0-2.06018-6.44752A9.13816,9.13816,0,0,0,346.04872,354.06652Z"/><path class="bn" d="M173.61132,159.21692a8.76028,8.76028,0,0,0,5.71653-2.0943,8.66777,8.66777,0,0,0,3.12448-5.98721,8.81881,8.81881,0,0,0-2.07918-6.49872,9.09261,9.09261,0,0,0-12.50686-1.02824,8.85685,8.85685,0,0,0,5.745,15.60847Z"/><path class="bo" d="M327.69852,367.04107a8.82172,8.82172,0,0,0-4.11279,5.38322,8.69481,8.69481,0,0,0,.90124,6.73547,8.87217,8.87217,0,0,0,15.34342-8.913A9.12,9.12,0,0,0,327.69852,367.04107Z"/><path class="bp" d="M193.217,145.36944a8.89249,8.89249,0,0,0,7.68208-13.35886,9.09117,9.09117,0,0,0-12.12993-3.16424,8.84169,8.84169,0,0,0-3.19448,12.12062A8.85533,8.85533,0,0,0,193.217,145.36944Z"/><path class="bq" d="M307.37694,376.6412a8.86206,8.86206,0,1,0,11.36888,5.22635A9.11541,9.11541,0,0,0,307.37694,376.6412Z"/><path class="br" d="M214.97209,135.11025a8.91966,8.91966,0,0,0,3.094-.56231,8.81041,8.81041,0,0,0,5.2281-11.33669,8.86768,8.86768,0,1,0-8.32214,11.899Z"/><path class="bs" d="M285.65794,382.54911a8.858,8.858,0,1,0,3.15667,17.4319,8.84962,8.84962,0,0,0,7.16515-10.27432A8.97765,8.97765,0,0,0,285.65794,382.54911Z"/><path class="bt" d="M238.1527,128.80659a8.34585,8.34585,0,0,0,1.61518-.15512,8.82127,8.82127,0,1,0-1.61518.15512Z"/><path class="bu" d="M254.38243,83.38054a8.33912,8.33912,0,1,1,8.33533,8.35045A8.3433,8.3433,0,0,1,254.38243,83.38054Z"/><path class="bv" d="M254.38243,427.89761a8.33912,8.33912,0,1,1,8.33533,8.3297A8.34854,8.34854,0,0,1,254.38243,427.89761Z"/><path class="bw" d="M284.42726,84.57166a8.33519,8.33519,0,1,1,6.75234,9.63987A8.35571,8.35571,0,0,1,284.42726,84.57166Z"/><path class="bx" d="M224.58734,423.80382a8.33586,8.33586,0,1,1,6.76378,9.66838A8.35385,8.35385,0,0,1,224.58734,423.80382Z"/><path class="by" d="M313.80372,90.9168a8.33143,8.33143,0,1,1,4.96478,10.67588A8.332,8.332,0,0,1,313.80372,90.9168Z"/><path class="bz" d="M195.957,414.66168a8.33589,8.33589,0,1,1,4.99135,10.65513A8.32213,8.32213,0,0,1,195.957,414.66168Z"/><path class="ca" d="M341.61232,102.3008a8.33962,8.33962,0,1,1,3.04285,11.38594A8.365,8.365,0,0,1,341.61232,102.3008Z"/><path class="cb" d="M169.36222,400.64569a8.327,8.327,0,1,1,3.05041,11.365A8.3088,8.3088,0,0,1,169.36222,400.64569Z"/><path class="cc" d="M367.04061,118.33527a8.32945,8.32945,0,1,1,1.03581,11.72682A8.30637,8.30637,0,0,1,367.04061,118.33527Z"/><path class="cd" d="M145.59816,382.22336a8.33208,8.33208,0,1,1,1.03969,11.73631A8.32511,8.32511,0,0,1,145.59816,382.22336Z"/><path class="ce" d="M389.2973,138.5186a8.333,8.333,0,1,1-1.02806,11.72856A8.3033,8.3033,0,0,1,389.2973,138.5186Z"/><path class="cf" d="M125.396,359.95543a8.33015,8.33015,0,1,1-1.03019,11.75124A8.33142,8.33142,0,0,1,125.396,359.95543Z"/><path class="cg" d="M407.697,162.30922a8.32725,8.32725,0,1,1-3.0353,11.35162A8.3243,8.3243,0,0,1,407.697,162.30922Z"/><path class="ch" d="M109.35394,334.54206a8.3361,8.3361,0,1,1-3.04111,11.37644A8.307,8.307,0,0,1,109.35394,334.54206Z"/><path class="ci" d="M421.6978,188.87938a8.32947,8.32947,0,1,1-4.97059,10.67569A8.33717,8.33717,0,0,1,421.6978,188.87938Z"/><path class="cj" d="M97.97363,306.71641a8.32658,8.32658,0,1,1-4.97816,10.66638A8.31221,8.31221,0,0,1,97.97363,306.71641Z"/><path class="ck" d="M430.88144,217.47947a8.34734,8.34734,0,1,1-6.75622,9.6647A8.35952,8.35952,0,0,1,430.88144,217.47947Z"/><path class="cl" d="M432.08962,207.58a8.35023,8.35023,0,1,1-6.7694,9.66276A8.36746,8.36746,0,0,1,432.08962,207.58Z"/><path class="cm" d="M91.617,277.31551a8.34317,8.34317,0,1,1-6.76183,9.68157A8.3521,8.3521,0,0,1,91.617,277.31551Z"/><path class="cn" d="M434.9601,247.27049a8.33921,8.33921,0,1,1-8.32776,8.34483A8.33468,8.33468,0,0,1,434.9601,247.27049Z"/><path class="co" d="M90.443,247.28755a8.34106,8.34106,0,1,1-8.32776,8.32777A8.33587,8.33587,0,0,1,90.443,247.28755Z"/><path class="cp" d="M433.77674,277.31551a8.34351,8.34351,0,1,1-9.65152,6.777A8.33152,8.33152,0,0,1,433.77674,277.31551Z"/><path class="cq" d="M94.49528,217.5041a8.33306,8.33306,0,1,1-9.64007,6.75233A8.346,8.346,0,0,1,94.49528,217.5041Z"/><path class="cr" d="M427.43139,306.71641a8.33015,8.33015,0,1,1-10.70418,4.95741A8.3359,8.3359,0,0,1,427.43139,306.71641Z"/><path class="cs" d="M477.53836,309.10233a8.33484,8.33484,0,1,1-10.69081,4.98573A8.32557,8.32557,0,0,1,477.53836,309.10233Z"/><path class="ct" d="M489.10792,285.96884a8.33239,8.33239,0,1,1-10.672,4.984A8.32527,8.32527,0,0,1,489.10792,285.96884Z"/><path class="cu" d="M501.52385,303.952a8.33673,8.33673,0,1,1-10.67568,4.99135A8.34431,8.34431,0,0,1,501.52385,303.952Z"/><path class="cv" d="M417.09833,401.68538a8.33677,8.33677,0,1,1-10.67394,4.99135A8.34468,8.34468,0,0,1,417.09833,401.68538Z"/><path class="cw" d="M440.228,386.24715a8.33976,8.33976,0,1,1-10.67569,5.00085A8.321,8.321,0,0,1,440.228,386.24715Z"/><path class="cx" d="M363.09457,436.39581a8.33977,8.33977,0,1,1-10.68538,4.9989A8.33861,8.33861,0,0,1,363.09457,436.39581Z"/><path class="cy" d="M273.07351,459.52737a8.33763,8.33763,0,1,1-10.66638,5.016A8.36911,8.36911,0,0,1,273.07351,459.52737Z"/><path class="cz" d="M224.2201,472.40536a8.333,8.333,0,1,1-10.67957,4.98378A8.326,8.326,0,0,1,224.2201,472.40536Z"/><path class="da" d="M100.77605,426.10831a8.33345,8.33345,0,1,1-10.67952,4.98552A8.36232,8.36232,0,0,1,100.77605,426.10831Z"/><path class="db" d="M378.09517,465.13046a8.33407,8.33407,0,1,1-10.68712,4.96672A8.33506,8.33506,0,0,1,378.09517,465.13046Z"/><path class="dc" d="M431.23181,437.68717a8.3359,8.3359,0,1,1-10.67394,4.98767A8.33927,8.33927,0,0,1,431.23181,437.68717Z"/><path class="dd" d="M460.38665,384.53541a8.334,8.334,0,1,1-10.67394,4.99135A8.32974,8.32974,0,0,1,460.38665,384.53541Z"/><path class="de" d="M256.37242.50581a8.33787,8.33787,0,1,1-10.68713,4.99135A8.33061,8.33061,0,0,1,256.37242.50581Z"/><path class="df" d="M113.64454,46.7953a8.33811,8.33811,0,1,1-10.70026,4.99154A8.33417,8.33417,0,0,1,113.64454,46.7953Z"/><path class="dg" d="M154.78005,40.36115a8.33881,8.33881,0,1,1-10.691,4.99135A8.34554,8.34554,0,0,1,154.78005,40.36115Z"/><path class="dh" d="M346.25329,28.52828a8.32371,8.32371,0,1,1-10.68344,4.9896A8.32608,8.32608,0,0,1,346.25329,28.52828Z"/><path class="di" d="M472.38414,110.24426a8.33586,8.33586,0,1,1-10.67568,4.96672A8.33091,8.33091,0,0,1,472.38414,110.24426Z"/><path class="dj" d="M484.39676,170.21855a8.34066,8.34066,0,1,1-10.69837,5.016A8.38272,8.38272,0,0,1,484.39676,170.21855Z"/><path class="dk" d="M402.0921,69.10124a8.33142,8.33142,0,1,1-10.67394,4.96691A8.33291,8.33291,0,0,1,402.0921,69.10124Z"/><path class="dl" d="M405.51927,41.65814a8.33692,8.33692,0,1,1-10.67569,4.99135A8.30642,8.30642,0,0,1,405.51927,41.65814Z"/><path class="dm" d="M384.94213,435.96225a8.32462,8.32462,0,1,1-10.67568,4.99522A8.34831,8.34831,0,0,1,384.94213,435.96225Z"/><path class="dn" d="M465.52574,351.97028a8.335,8.335,0,1,1-10.67568,4.99891A8.3372,8.3372,0,0,1,465.52574,351.97028Z"/><path class="do" d="M496.38107,261.07823a8.35029,8.35029,0,1,1-10.67006,4.99522A8.37279,8.37279,0,0,1,496.38107,261.07823Z"/><path class="dp" d="M494.6769,226.80136a8.33527,8.33527,0,1,1-10.68713,5.016A8.33894,8.33894,0,0,1,494.6769,226.80136Z"/><path class="dq" d="M463.82157,166.81756a8.32975,8.32975,0,1,1-10.67588,4.97642A8.3355,8.3355,0,0,1,463.82157,166.81756Z"/><path class="dr" d="M19.76838,194.23623A8.32965,8.32965,0,1,1,9.0925,199.21245,8.329,8.329,0,0,1,19.76838,194.23623Z"/><path class="ds" d="M148.35327,444.55139a8.33789,8.33789,0,1,1-10.67569,4.99134A8.34006,8.34006,0,0,1,148.35327,444.55139Z"/><path class="dt" d="M172.35214,461.686a8.33595,8.33595,0,1,1-10.67588,4.98941A8.32328,8.32328,0,0,1,172.35214,461.686Z"/><path class="du" d="M103.67891,188.87938a8.32528,8.32528,0,1,1-10.68344,4.97429A8.33545,8.33545,0,0,1,103.67891,188.87938Z"/><path class="dv" d="M86.5367,174.31428a8.32214,8.32214,0,1,1-10.69295,4.98941A8.32016,8.32016,0,0,1,86.5367,174.31428Z"/><path class="dw" d="M47.95372,173.45647a8.33125,8.33125,0,1,1-10.66812,4.98378A8.34869,8.34869,0,0,1,47.95372,173.45647Z"/><path class="dx" d="M65.952,152.87352a8.33239,8.33239,0,1,1-10.67956,4.9991A8.35276,8.35276,0,0,1,65.952,152.87352Z"/><path class="dy" d="M48.04272,120.52808A8.32525,8.32525,0,1,1,37.37654,125.527,8.3467,8.3467,0,0,1,48.04272,120.52808Z"/><path class="dz" d="M85.76033,200.23876a8.33394,8.33394,0,1,1-10.67007,4.99891A8.34818,8.34818,0,0,1,85.76033,200.23876Z"/><path class="ea" d="M63.47708,217.39047a8.33811,8.33811,0,1,1-10.672,4.97429A8.33622,8.33622,0,0,1,63.47708,217.39047Z"/><path class="eb" d="M68.61811,237.96567a8.33394,8.33394,0,1,1-10.67026,4.99891A8.35363,8.35363,0,0,1,68.61811,237.96567Z"/><path class="ec" d="M416.0474,334.51744a8.32955,8.32955,0,1,1-11.38575,3.05061A8.34047,8.34047,0,0,1,416.0474,334.51744Z"/><path class="ed" d="M117.68927,162.277a8.3374,8.3374,0,1,1-11.384,3.058A8.33864,8.33864,0,0,1,117.68927,162.277Z"/><path class="ee" d="M106.7937,162.30922A8.32111,8.32111,0,1,1,95.4099,165.335,8.28567,8.28567,0,0,1,106.7937,162.30922Z"/><path class="ef" d="M109.98257,141.70746a8.33141,8.33141,0,1,1-11.40863,3.05042A8.33,8.33,0,0,1,109.98257,141.70746Z"/><path class="eg" d="M87.95119,148.543a8.3408,8.3408,0,1,1-11.38982,3.06574A8.3808,8.3808,0,0,1,87.95119,148.543Z"/><path class="eh" d="M400.01293,359.9308a8.3402,8.3402,0,1,1-11.72682,1.03581A8.35824,8.35824,0,0,1,400.01293,359.9308Z"/><path class="ei" d="M136.09634,138.50348a8.33386,8.33386,0,1,1-11.74368,1.04337A8.35637,8.35637,0,0,1,136.09634,138.50348Z"/><path class="ej" d="M134.37529,119.64758a8.32876,8.32876,0,1,1-11.72686,1.03581A8.341,8.341,0,0,1,134.37529,119.64758Z"/><path class="ek" d="M116.5474,123.69212a8.32449,8.32449,0,1,1-11.73418,1.02825A8.3266,8.3266,0,0,1,116.5474,123.69212Z"/><path class="el" d="M379.81641,382.21017a8.33009,8.33009,0,1,1-11.74-1.01118A8.34156,8.34156,0,0,1,379.81641,382.21017Z"/><path class="em" d="M158.34372,118.29378a8.3299,8.3299,0,1,1-11.73438-1.01118A8.30575,8.30575,0,0,1,158.34372,118.29378Z"/><path class="en" d="M356.0638,400.625a8.33536,8.33536,0,1,1-11.40863-3.05818A8.34166,8.34166,0,0,1,356.0638,400.625Z"/><path class="eo" d="M366.04649,404.003a8.32993,8.32993,0,1,1-11.38012-3.05061A8.3227,8.3227,0,0,1,366.04649,404.003Z"/><path class="ep" d="M183.78151,102.25155a8.32758,8.32758,0,1,1-11.38574-3.02579A8.35355,8.35355,0,0,1,183.78151,102.25155Z"/><path class="eq" d="M329.46145,414.588a8.33662,8.33662,0,1,1-10.67588-4.94229A8.36258,8.36258,0,0,1,329.46145,414.588Z"/><path class="er" d="M211.60717,90.89218a8.33143,8.33143,0,1,1-10.67957-4.96672A8.33584,8.33584,0,0,1,211.60717,90.89218Z"/><path class="es" d="M300.84429,423.77919a8.33671,8.33671,0,1,1-9.66469-6.724A8.33906,8.33906,0,0,1,300.84429,423.77919Z"/><path class="et" d="M287.97949,438.35574A8.33262,8.33262,0,1,1,271.57,441.26422a8.33262,8.33262,0,0,1,16.40947-2.90848Z"/><path class="eu" d="M302.54847,452.9189a8.33833,8.33833,0,1,1-9.66469-6.73352A8.36347,8.36347,0,0,1,302.54847,452.9189Z"/><path class="ev" d="M318.54882,465.0244a8.3342,8.3342,0,1,1-9.66838-6.76378A8.33812,8.33812,0,0,1,318.54882,465.0244Z"/><path class="ew" d="M356.02773,459.50836a8.34425,8.34425,0,1,1-9.67788-6.76183A8.35944,8.35944,0,0,1,356.02773,459.50836Z"/><path class="ex" d="M16.53415,269.19406a8.32924,8.32924,0,1,1-9.6474-6.74865A8.34208,8.34208,0,0,1,16.53415,269.19406Z"/><path class="ey" d="M16.53415,315.48355a8.33009,8.33009,0,1,1-9.6474-6.74846A8.30877,8.30877,0,0,1,16.53415,315.48355Z"/><path class="ez" d="M277.14461,495.51423a8.33651,8.33651,0,1,1-9.64763-6.75234A8.30635,8.30635,0,0,1,277.14461,495.51423Z"/><path class="fa" d="M446.882,65.20251a8.33563,8.33563,0,1,1-9.67226-6.76183A8.34552,8.34552,0,0,1,446.882,65.20251Z"/><path class="fb" d="M43.98112,85.77015a8.3337,8.3337,0,1,1-9.6647-6.75234A8.34981,8.34981,0,0,1,43.98112,85.77015Z"/><path class="fc" d="M71.40715,84.04891a8.33117,8.33117,0,1,1-9.65888-6.7599A8.32331,8.32331,0,0,1,71.40715,84.04891Z"/><path class="fd" d="M100.54706,53.18989a8.33585,8.33585,0,1,1-9.6552-6.76183A8.32244,8.32244,0,0,1,100.54706,53.18989Z"/><path class="fe" d="M270.28621,449.21892a8.333,8.333,0,1,1-9.65325-6.74865A8.3487,8.3487,0,0,1,270.28621,449.21892Z"/><path class="ff" d="M251.42644,439.7966a8.33833,8.33833,0,1,1-9.65326-6.76184A8.36988,8.36988,0,0,1,251.42644,439.7966Z"/><path class="fg" d="M228.2722,444.94132a8.33412,8.33412,0,1,1-9.65132-6.76358A8.36582,8.36582,0,0,1,228.2722,444.94132Z"/><path class="fh" d="M212.84754,434.65382a8.33634,8.33634,0,1,1-9.65345-6.75621A8.374,8.374,0,0,1,212.84754,434.65382Z"/><path class="fi" d="M192.28727,432.9287a8.33974,8.33974,0,1,1-9.6645-6.756A8.35446,8.35446,0,0,1,192.28727,432.9287Z"/><path class="fj" d="M169.14253,441.50078a8.34235,8.34235,0,0,1-16.43022,2.90286,8.34236,8.34236,0,0,1,16.43022-2.90286Z"/><path class="fk" d="M195.70338,457.78712a8.3404,8.3404,0,1,1-9.66275-6.756A8.35291,8.35291,0,0,1,195.70338,457.78712Z"/><path class="fl" d="M113.40042,410.63983A8.3258,8.3258,0,1,1,103.764,403.897,8.32638,8.32638,0,0,1,113.40042,410.63983Z"/><path class="fm" d="M100.55074,110.60394a8.33982,8.33982,0,1,1-9.65888-6.75427A8.34362,8.34362,0,0,1,100.55074,110.60394Z"/><path class="fn" d="M150.26957,67.755a8.33118,8.33118,0,1,1-9.65519-6.73721A8.31825,8.31825,0,0,1,150.26957,67.755Z"/><path class="fo" d="M183.70763,56.61531a8.33588,8.33588,0,1,1-9.65131-6.73721A8.34867,8.34867,0,0,1,183.70763,56.61531Z"/><path class="fp" d="M187.98136,17.184a8.33216,8.33216,0,1,1-9.64744-6.72965A8.30726,8.30726,0,0,1,187.98136,17.184Z"/><path class="fq" d="M510.30806,212.61862a8.33736,8.33736,0,1,1-9.64938-6.73527A8.33635,8.33635,0,0,1,510.30806,212.61862Z"/><path class="fr" d="M228.2722,30.884a8.33476,8.33476,0,1,1-9.65132-6.74478A8.3632,8.3632,0,0,1,228.2722,30.884Z"/><path class="fs" d="M265.99542,39.48066a8.32778,8.32778,0,1,1-9.65519-6.76184A8.33617,8.33617,0,0,1,265.99542,39.48066Z"/><path class="ft" d="M297.72369,41.18484a8.33709,8.33709,0,1,1-9.66839-6.7599A8.34546,8.34546,0,0,1,297.72369,41.18484Z"/><path class="fu" d="M314.864,18.90352A8.32889,8.32889,0,1,1,305.207,12.151,8.34079,8.34079,0,0,1,314.864,18.90352Z"/><path class="fv" d="M188.83355,415.79405a8.3206,8.3206,0,1,1-9.65132-6.75622A8.33911,8.33911,0,0,1,188.83355,415.79405Z"/><path class="fw" d="M163.98831,417.50016a8.33587,8.33587,0,1,1-9.66082-6.73721A8.33478,8.33478,0,0,1,163.98831,417.50016Z"/><path class="fx" d="M144.25948,424.36612a8.32374,8.32374,0,1,1-9.63425-6.75989A8.35491,8.35491,0,0,1,144.25948,424.36612Z"/><path class="fy" d="M151.13494,402.09044a8.338,8.338,0,1,1-9.67226-6.74846A8.32744,8.32744,0,0,1,151.13494,402.09044Z"/><path class="fz" d="M135.69691,384.07917a8.33779,8.33779,0,1,1-9.66475-6.73722A8.3518,8.3518,0,0,1,135.69691,384.07917Z"/><path class="ga" d="M113.40042,377.232a8.326,8.326,0,1,1-9.63639-6.75233A8.31516,8.31516,0,0,1,113.40042,377.232Z"/><path class="gb" d="M115.12166,356.6607a8.334,8.334,0,1,1-9.65713-6.75816A8.35043,8.35043,0,0,1,115.12166,356.6607Z"/><path class="gc" d="M103.10909,331.80208a8.33375,8.33375,0,1,1-9.64962-6.75234A8.3563,8.3563,0,0,1,103.10909,331.80208Z"/><path class="gd" d="M91.975,351.514a8.32827,8.32827,0,1,1-9.64763-6.7601A8.333,8.333,0,0,1,91.975,351.514Z"/><path class="ge" d="M87.703,314.62768a8.33772,8.33772,0,1,1-9.65694-6.72965A8.35752,8.35752,0,0,1,87.703,314.62768Z"/><path class="gf" d="M55.97862,315.48355a8.33668,8.33668,0,1,1-9.64938-6.74846A8.31643,8.31643,0,0,1,55.97862,315.48355Z"/><path class="gg" d="M61.96408,345.48688a8.32636,8.32636,0,1,1-9.63231-6.75621A8.3116,8.3116,0,0,1,61.96408,345.48688Z"/><path class="gh" d="M88.55131,370.34531a8.33652,8.33652,0,1,1-9.64938-6.73353A8.33787,8.33787,0,0,1,88.55131,370.34531Z"/><path class="gi" d="M59.4116,383.22136a8.3258,8.3258,0,1,1-9.64764-6.76378A8.33962,8.33962,0,0,1,59.4116,383.22136Z"/><path class="gj" d="M82.53947,294.91591a8.32822,8.32822,0,1,1-9.64395-6.76183A8.322,8.322,0,0,1,82.53947,294.91591Z"/><path class="gk" d="M83.39709,270.05749a8.32878,8.32878,0,1,1-9.657-6.75621A8.3222,8.3222,0,0,1,83.39709,270.05749Z"/><path class="gl" d="M54.26494,274.3444a8.3377,8.3377,0,1,1-9.6647-6.73333A8.35043,8.35043,0,0,1,54.26494,274.3444Z"/><path class="gm" d="M32.83193,242.6239a8.33583,8.33583,0,1,1-9.65519-6.73741A8.344,8.344,0,0,1,32.83193,242.6239Z"/><path class="gn" d="M246.28366,467.21526a8.33651,8.33651,0,1,1-9.6647-6.7374A8.3617,8.3617,0,0,1,246.28366,467.21526Z"/><path class="go" d="M314.01,438.93123a8.33816,8.33816,0,1,1-9.66644-6.7599A8.37551,8.37551,0,0,1,314.01,438.93123Z"/><path class="gp" d="M338.87233,436.35412a8.33767,8.33767,0,1,1-9.6647-6.73527A8.337,8.337,0,0,1,338.87233,436.35412Z"/><path class="gq" d="M356.86654,426.08736a8.32927,8.32927,0,1,1-9.66838-6.75795A8.36654,8.36654,0,0,1,356.86654,426.08736Z"/><path class="gr" d="M383.45008,425.222a8.33081,8.33081,0,1,1-9.6647-6.75233A8.35005,8.35005,0,0,1,383.45008,425.222Z"/><path class="gs" d="M396.311,402.95406a8.33421,8.33421,0,1,1-9.6647-6.77715A8.35862,8.35862,0,0,1,396.311,402.95406Z"/><path class="gt" d="M416.02277,390.07588a8.33668,8.33668,0,1,1-9.6645-6.74846A8.3483,8.3483,0,0,1,416.02277,390.07588Z"/><path class="gu" d="M424.58554,365.20233a8.32638,8.32638,0,1,1-9.6647-6.73159A8.33626,8.33626,0,0,1,424.58554,365.20233Z"/><path class="gv" d="M446.02611,359.22074a8.33518,8.33518,0,1,1-9.6647-6.75253A8.36065,8.36065,0,0,1,446.02611,359.22074Z"/><path class="gw" d="M439.16771,339.48435a8.33816,8.33816,0,1,1-9.67614-6.73546A8.35242,8.35242,0,0,1,439.16771,339.48435Z"/><path class="gx" d="M451.1652,321.51826a8.33372,8.33372,0,1,1-9.661-6.777A8.33773,8.33773,0,0,1,451.1652,321.51826Z"/><path class="gy" d="M456.30605,300.94307a8.33619,8.33619,0,1,1-9.65888-6.777A8.33345,8.33345,0,0,1,456.30605,300.94307Z"/><path class="gz" d="M464.01663,339.48435a8.33816,8.33816,0,1,1-9.65132-6.73546A8.32994,8.32994,0,0,1,464.01663,339.48435Z"/><path class="ha" d="M457.16192,272.6441a8.33084,8.33084,0,1,1-9.65132-6.76183A8.33169,8.33169,0,0,1,457.16192,272.6441Z"/><path class="hb" d="M470.02284,287.21289A8.33736,8.33736,0,1,1,460.364,280.472,8.37613,8.37613,0,0,1,470.02284,287.21289Z"/><path class="hc" d="M458.03873,240.91953a8.34334,8.34334,0,1,1-9.6647-6.73722A8.38071,8.38071,0,0,1,458.03873,240.91953Z"/><path class="hd" d="M470.02284,258.93487A8.33764,8.33764,0,1,1,460.364,252.173,8.32422,8.32422,0,0,1,470.02284,258.93487Z"/><path class="he" d="M487.17844,249.4823a8.33765,8.33765,0,1,1-9.6647-6.75253A8.34943,8.34943,0,0,1,487.17844,249.4823Z"/><path class="hf" d="M479.43954,229.77034a8.32841,8.32841,0,1,1-9.65325-6.76184A8.33167,8.33167,0,0,1,479.43954,229.77034Z"/><path class="hg" d="M462.30489,212.63568a8.33213,8.33213,0,1,1-9.65714-6.75233A8.31828,8.31828,0,0,1,462.30489,212.63568Z"/><path class="hh" d="M452.03232,191.20268a8.33784,8.33784,0,1,1-9.66082-6.75234A8.32815,8.32815,0,0,1,452.03232,191.20268Z"/><path class="hi" d="M477.73537,197.19008a8.33056,8.33056,0,1,1-9.65326-6.73721A8.3498,8.3498,0,0,1,477.73537,197.19008Z"/><path class="hj" d="M439.16771,174.91633a8.3352,8.3352,0,1,1-9.67614-6.74283A8.3589,8.3589,0,0,1,439.16771,174.91633Z"/><path class="hk" d="M430.59563,154.34114a8.33775,8.33775,0,1,1-9.67226-6.74477A8.33565,8.33565,0,0,1,430.59563,154.34114Z"/><path class="hl" d="M452.88451,156.06238a8.33584,8.33584,0,1,1-9.6647-6.76184A8.32068,8.32068,0,0,1,452.88451,156.06238Z"/><path class="hm" d="M443.44512,136.34112a8.3308,8.3308,0,1,1-9.65132-6.75234A8.32539,8.32539,0,0,1,443.44512,136.34112Z"/><path class="hn" d="M421.16012,137.20649a8.33452,8.33452,0,1,1-9.64763-6.7601A8.33366,8.33366,0,0,1,421.16012,137.20649Z"/><path class="ho" d="M404.87358,120.03189a8.33867,8.33867,0,1,1-9.66276-6.73721A8.34437,8.34437,0,0,1,404.87358,120.03189Z"/><path class="hp" d="M424.58554,102.89724a8.3244,8.3244,0,1,1-9.6647-6.75428A8.34811,8.34811,0,0,1,424.58554,102.89724Z"/><path class="hq" d="M457.16192,106.34534a8.32921,8.32921,0,1,1-9.65132-6.7599A8.34152,8.34152,0,0,1,457.16192,106.34534Z"/><path class="hr" d="M390.30848,104.626a8.3359,8.3359,0,1,1-9.66838-6.78646A8.33291,8.33291,0,0,1,390.30848,104.626Z"/><path class="hs" d="M371.4489,90.03437a8.33793,8.33793,0,1,1-9.66858-6.7599A8.35786,8.35786,0,0,1,371.4489,90.03437Z"/><path class="ht" d="M343.14974,78.90419a8.33089,8.33089,0,1,1-9.66838-6.76184A8.33431,8.33431,0,0,1,343.14974,78.90419Z"/><path class="hu" d="M362.01708,65.20251a8.33372,8.33372,0,1,1-9.6647-6.76183A8.34578,8.34578,0,0,1,362.01708,65.20251Z"/><path class="hv" d="M332.8698,44.62732a8.33561,8.33561,0,1,1-9.67226-6.76184A8.3439,8.3439,0,0,1,332.8698,44.62732Z"/><path class="hw" d="M323.43429,66.89913a8.33587,8.33587,0,1,1-9.661-6.73721A8.34584,8.34584,0,0,1,323.43429,66.89913Z"/><path class="hx" d="M296.85638,64.33714a8.3323,8.3323,0,1,1-9.64938-6.75233A8.336,8.336,0,0,1,296.85638,64.33714Z"/><path class="hy" d="M390.29142,83.18547a8.32811,8.32811,0,1,1-9.65132-6.73721A8.31885,8.31885,0,0,1,390.29142,83.18547Z"/><path class="hz" d="M283.1547,53.18989a8.33957,8.33957,0,1,1-9.67226-6.76183A8.372,8.372,0,0,1,283.1547,53.18989Z"/><path class="ia" d="M261.70657,61.75247a8.32745,8.32745,0,1,1-9.64763-6.75234A8.3501,8.3501,0,0,1,261.70657,61.75247Z"/><path class="ib" d="M245.41635,72.90166a8.33461,8.33461,0,1,1-9.65326-6.73722A8.35487,8.35487,0,0,1,245.41635,72.90166Z"/><path class="ic" d="M247.13953,46.322a8.336,8.336,0,1,1-9.66276-6.75989A8.35888,8.35888,0,0,1,247.13953,46.322Z"/><path class="id" d="M211.1263,59.17536a8.33585,8.33585,0,1,1-9.6552-6.7599A8.34029,8.34029,0,0,1,211.1263,59.17536Z"/><path class="ie" d="M222.27917,76.3517a8.33555,8.33555,0,1,1-9.66082-6.78646A8.3421,8.3421,0,0,1,222.27917,76.3517Z"/><path class="if" d="M193.13558,76.3517a8.33555,8.33555,0,1,1-9.65694-6.78646A8.34516,8.34516,0,0,1,193.13558,76.3517Z"/><path class="ig" d="M170.83915,70.33967a8.33585,8.33585,0,1,1-9.66082-6.75234A8.328,8.328,0,0,1,170.83915,70.33967Z"/><path class="ih" d="M167.42129,91.77267a8.33455,8.33455,0,1,1-9.6647-6.777A8.35333,8.35333,0,0,1,167.42129,91.77267Z"/><path class="ii" d="M145.99022,105.45728a8.33945,8.33945,0,1,1-9.66469-6.75233A8.37036,8.37036,0,0,1,145.99022,105.45728Z"/><path class="ij" d="M129.70194,104.626a8.33964,8.33964,0,1,1-9.67231-6.78646A8.3311,8.3311,0,0,1,129.70194,104.626Z"/><path class="ik" d="M134.841,83.18547a8.33656,8.33656,0,1,1-9.65719-6.73721A8.33039,8.33039,0,0,1,134.841,83.18547Z"/><path class="il" d="M111.70749,80.62349a8.33636,8.33636,0,1,1-9.67226-6.75234A8.35154,8.35154,0,0,1,111.70749,80.62349Z"/><path class="im" d="M240.99119,84.52241a8.328,8.328,0,1,1-9.6552-6.7601A8.36376,8.36376,0,0,1,240.99119,84.52241Z"/><path class="in" d="M719.21145,202.08118c-19.35577,0-36.38455,9.54332-45.536,24.90012-8.60794-15.74867-25.17467-24.90012-45.88617-24.90012-14.74136,0-27.466,5.26029-36.40162,14.75823l-.10974-8.33164a3.95673,3.95673,0,0,0-3.95554-3.91773H575.82282a3.96057,3.96057,0,0,0-3.9631,3.9633V331.97252a3.95686,3.95686,0,0,0,3.9631,3.96329h12.23036a3.95577,3.95577,0,0,0,3.97454-3.96329V258.76618c0-21.78707,14.61436-36.99786,35.51724-36.99786,21.04482,0,35.754,15.21079,35.754,36.99786v73.20634a3.95576,3.95576,0,0,0,3.9631,3.96329h12.22843a3.95412,3.95412,0,0,0,3.967-3.96329V258.76618c0-21.93482,14.70529-37.24973,35.754-37.24973,21.23794,0,35.50386,14.67117,35.50386,36.51136v73.94471a3.964,3.964,0,0,0,3.984,3.96329h12.23037a3.96017,3.96017,0,0,0,3.967-3.96329V258.02781C774.8967,225.08768,752.01333,202.08118,719.21145,202.08118Z"/><path class="in" d="M873.73221,315.92292a3.97749,3.97749,0,0,0-5.37-2.02236c-6.18247,2.96917-12.31568,4.607-17.26534,4.607-14.03887,0-18.77271-6.18052-18.77271-24.51386V222.76438h38.00341a3.96678,3.96678,0,0,0,3.98036-3.96329V208.55334a3.96444,3.96444,0,0,0-3.98036-3.9633H832.32413V171.3356a3.96032,3.96032,0,0,0-1.30649-2.95579,3.87412,3.87412,0,0,0-3.06574-.99974l-11.988,1.25724a3.94739,3.94739,0,0,0-3.55223,3.93479V204.59H790.14355a3.97034,3.97034,0,0,0-3.96872,3.9633v10.24775a3.97271,3.97271,0,0,0,3.96872,3.96329h22.26813v71.22935c0,29.39915,12.64512,43.68795,38.68516,43.68795,7.57214,0,15.73916-2.16062,24.955-6.63891a3.947,3.947,0,0,0,1.92949-5.11253Z"/><path class="in" d="M948.603,259.84561l-4.38735-.74981c-17.67253-3.11867-32.34564-6.65015-32.70338-18.44327a12.97033,12.97033,0,0,1,3.84947-9.86345c5.32466-5.50072,15.96836-8.78032,28.45428-8.78032l.95825.01338c13.33811,0,24.527,2.02973,35.85424,11.99555a3.95678,3.95678,0,0,0,5.50459-.25575l7.49458-7.99639a3.97129,3.97129,0,0,0-.17431-5.61628c-12.41787-11.65662-28.79321-17.56259-48.64323-17.56259l-.92218-.00368c-17.93177,0-33.44369,5.281-42.54976,14.47222a32.53126,32.53126,0,0,0-9.50939,24.01012c.30113,28.60765,28.57179,33.31513,51.30934,37.11361,22.53319,3.61272,37.27067,6.99083,36.89567,20.40475-.68543,17.75572-24.3603,19.672-34.50974,19.672-17.8769,0-33.57263-7.20877-41.96477-19.27995a3.972,3.972,0,0,0-5.89453-.70075l-8.98876,7.9927a3.97937,3.97937,0,0,0-.693,5.13716c10.82344,16.60454,32.24714,26.53042,57.28356,26.53042,12.58831,0,53.70457-2.76462,54.69113-38.26654C1001.29074,268.68275,970.8426,263.5739,948.603,259.84561Z"/></svg>